<svg width="20" height="20" viewBox="0 0 20 20" fill="none" xmlns="http://www.w3.org/2000/svg">
<path d="M18.3333 7.08336H16.2791L13.1958 2.45419C13.0731 2.27031 12.8824 2.14268 12.6656 2.09939C12.4489 2.05611 12.2238 2.1007 12.0399 2.22336C11.856 2.34602 11.7284 2.53671 11.6851 2.75347C11.6418 2.97023 11.6864 3.19531 11.8091 3.37919L14.2766 7.08336H5.72325L8.19325 3.37919C8.31591 3.19531 8.3605 2.97023 8.31722 2.75347C8.27393 2.53671 8.1463 2.34602 7.96242 2.22336C7.77853 2.1007 7.55345 2.05611 7.33669 2.09939C7.11993 2.14268 6.92925 2.27031 6.80658 2.45419L3.72075 7.08336H1.66659C1.44557 7.08336 1.23361 7.17116 1.07733 7.32744C0.921049 7.48372 0.833252 7.69568 0.833252 7.91669C0.833252 8.13771 0.921049 8.34967 1.07733 8.50595C1.23361 8.66223 1.44557 8.75003 1.66659 8.75003H2.49992V15.4167C2.49992 16.0797 2.76331 16.7156 3.23215 17.1845C3.70099 17.6533 4.33688 17.9167 4.99992 17.9167H14.9999C15.663 17.9167 16.2988 17.6533 16.7677 17.1845C17.2365 16.7156 17.4999 16.0797 17.4999 15.4167V8.75003H18.3333C18.5543 8.75003 18.7662 8.66223 18.9225 8.50595C19.0788 8.34967 19.1666 8.13771 19.1666 7.91669C19.1666 7.69568 19.0788 7.48372 18.9225 7.32744C18.7662 7.17116 18.5543 7.08336 18.3333 7.08336ZM15.8333 15.4167C15.8333 15.6377 15.7455 15.8497 15.5892 16.0059C15.4329 16.1622 15.2209 16.25 14.9999 16.25H4.99992C4.7789 16.25 4.56694 16.1622 4.41066 16.0059C4.25438 15.8497 4.16658 15.6377 4.16658 15.4167V8.75003H15.8333V15.4167ZM5.83325 14.1667V10.8334C5.83325 10.6123 5.92105 10.4004 6.07733 10.2441C6.23361 10.0878 6.44557 10 6.66658 10C6.8876 10 7.09956 10.0878 7.25584 10.2441C7.41212 10.4004 7.49992 10.6123 7.49992 10.8334V14.1667C7.49992 14.3877 7.41212 14.5997 7.25584 14.7559C7.09956 14.9122 6.8876 15 6.66658 15C6.44557 15 6.23361 14.9122 6.07733 14.7559C5.92105 14.5997 5.83325 14.3877 5.83325 14.1667ZM9.16658 14.1667V10.8334C9.16658 10.6123 9.25438 10.4004 9.41066 10.2441C9.56694 10.0878 9.7789 10 9.99992 10C10.2209 10 10.4329 10.0878 10.5892 10.2441C10.7455 10.4004 10.8333 10.6123 10.8333 10.8334V14.1667C10.8333 14.3877 10.7455 14.5997 10.5892 14.7559C10.4329 14.9122 10.2209 15 9.99992 15C9.7789 15 9.56694 14.9122 9.41066 14.7559C9.25438 14.5997 9.16658 14.3877 9.16658 14.1667ZM12.4999 14.1667V10.8334C12.4999 10.6123 12.5877 10.4004 12.744 10.2441C12.9003 10.0878 13.1122 10 13.3333 10C13.5543 10 13.7662 10.0878 13.9225 10.2441C14.0788 10.4004 14.1666 10.6123 14.1666 10.8334V14.1667C14.1666 14.3877 14.0788 14.5997 13.9225 14.7559C13.7662 14.9122 13.5543 15 13.3333 15C13.1122 15 12.9003 14.9122 12.744 14.7559C12.5877 14.5997 12.4999 14.3877 12.4999 14.1667Z" fill="black"/>
</svg>
