<svg width="20" height="20" viewBox="0 0 20 20" fill="none" xmlns="http://www.w3.org/2000/svg">
<path d="M7.38189 17.9437C7.07995 17.9437 6.78477 17.8541 6.53371 17.6864C6.28265 17.5187 6.08698 17.2801 5.97143 17.0012C5.85588 16.7222 5.82565 16.4153 5.88456 16.1192C5.94347 15.823 6.08885 15.5509 6.30237 15.3374C6.51587 15.1239 6.7879 14.9785 7.08404 14.9196C7.38019 14.8607 7.68717 14.891 7.96611 15.0065C8.24511 15.1221 8.48351 15.3178 8.65124 15.5689C8.81904 15.8199 8.90858 16.1151 8.90858 16.417C8.90817 16.8218 8.74724 17.2099 8.46104 17.4961C8.17477 17.7823 7.78671 17.9433 7.38189 17.9437ZM7.38189 15.5691C7.21417 15.5691 7.05021 15.6187 6.91076 15.7119C6.77131 15.8051 6.66263 15.9375 6.59845 16.0925C6.53426 16.2474 6.51747 16.4179 6.55019 16.5824C6.58291 16.7469 6.66367 16.8981 6.78226 17.0166C6.90086 17.1352 7.05195 17.216 7.21645 17.2487C7.38094 17.2815 7.55144 17.2646 7.70637 17.2004C7.86137 17.1362 7.99377 17.0275 8.08697 16.8881C8.18017 16.7486 8.22991 16.5847 8.22991 16.417C8.22957 16.1923 8.14004 15.9769 7.98111 15.8181C7.82211 15.6592 7.60664 15.5693 7.38189 15.5691Z" fill="#D0B484" stroke="#D0B484" stroke-width="0.5"/>
<path d="M15.5232 17.9437C15.2213 17.9437 14.9261 17.8541 14.675 17.6864C14.424 17.5187 14.2283 17.2801 14.1128 17.0012C13.9972 16.7222 13.967 16.4153 14.0259 16.1192C14.0848 15.823 14.2302 15.5509 14.4437 15.3374C14.6572 15.1239 14.9292 14.9785 15.2254 14.9196C15.5216 14.8607 15.8285 14.891 16.1074 15.0065C16.3864 15.1221 16.6248 15.3178 16.7926 15.5689C16.9604 15.8199 17.0499 16.1151 17.0499 16.417C17.0496 16.8218 16.8886 17.2099 16.6024 17.4961C16.3162 17.7823 15.928 17.9433 15.5232 17.9437ZM15.5232 15.5691C15.3555 15.5691 15.1916 15.6187 15.0521 15.7119C14.9126 15.8051 14.804 15.9375 14.7398 16.0925C14.6756 16.2474 14.6588 16.4179 14.6915 16.5824C14.7242 16.7469 14.805 16.8981 14.9236 17.0166C15.0422 17.1352 15.1933 17.216 15.3578 17.2487C15.5223 17.2815 15.6928 17.2646 15.8478 17.2004C16.0027 17.1362 16.1352 17.0275 16.2283 16.8881C16.3215 16.7486 16.3712 16.5847 16.3712 16.417C16.3709 16.1923 16.2814 15.9769 16.1224 15.8181C15.9634 15.6592 15.748 15.5693 15.5232 15.5691Z" fill="#D0B484" stroke="#D0B484" stroke-width="0.5"/>
<path d="M17.0492 14.2131H7.57724C7.10894 14.2117 6.65532 14.0495 6.29234 13.7536C5.92936 13.4577 5.67903 13.0461 5.58323 12.5877L3.62655 3.08497C3.60271 2.97038 3.54024 2.86749 3.44958 2.79347C3.35893 2.71943 3.2456 2.67885 3.12856 2.67839H1.78455C1.73876 2.68043 1.69304 2.67303 1.65015 2.65691C1.60725 2.64079 1.56807 2.61616 1.53496 2.58448C1.50184 2.5528 1.47548 2.51481 1.45748 2.47267C1.43948 2.43052 1.43018 2.38519 1.43018 2.33937C1.43018 2.29353 1.43948 2.24821 1.45748 2.20607C1.47548 2.16392 1.50184 2.12577 1.53496 2.09409C1.56807 2.06241 1.60725 2.03777 1.65015 2.02165C1.69304 2.00553 1.73876 1.9983 1.78455 2.00033H3.12789C3.40096 2.00127 3.66542 2.09601 3.87706 2.26857C4.08869 2.44113 4.23466 2.68113 4.29055 2.94841L6.24722 12.451C6.3112 12.7565 6.47814 13.0309 6.72012 13.2281C6.96208 13.4252 7.26442 13.5333 7.57658 13.5343H17.0492C17.1392 13.5343 17.2255 13.5701 17.2892 13.6338C17.3528 13.6975 17.3886 13.7837 17.3886 13.8737C17.3886 13.9637 17.3528 14.05 17.2892 14.1136C17.2255 14.1773 17.1392 14.2131 17.0492 14.2131Z" fill="#D0B484" stroke="#D0B484" stroke-width="0.5"/>
<path d="M16.4965 12.1771H7.38186C7.29186 12.1771 7.20556 12.1413 7.14193 12.0777C7.07829 12.014 7.04252 11.9277 7.04252 11.8377C7.04252 11.7477 7.07829 11.6613 7.14193 11.5977C7.20556 11.534 7.29186 11.4984 7.38186 11.4984H16.4965C16.6164 11.4985 16.7324 11.4563 16.8242 11.3792C16.9159 11.3021 16.9774 11.1951 16.9978 11.077L18.0598 4.97104C18.0727 4.89792 18.0694 4.82285 18.0501 4.75115C18.0308 4.67945 17.9961 4.61281 17.9483 4.55599C17.9005 4.49918 17.8408 4.45348 17.7735 4.42221C17.7062 4.39094 17.6328 4.37486 17.5585 4.37501H5.68587C5.59579 4.37501 5.50938 4.33926 5.44568 4.27556C5.38198 4.21186 5.34619 4.12541 5.34619 4.03533C5.34619 3.94524 5.38198 3.85879 5.44568 3.79509C5.50938 3.73139 5.59579 3.69565 5.68587 3.69565H17.5585C17.7317 3.69565 17.9028 3.73342 18.0597 3.80649C18.2167 3.87955 18.3558 3.98616 18.4673 4.11866C18.5788 4.25115 18.6599 4.40641 18.705 4.57357C18.7502 4.74074 18.7582 4.91567 18.7285 5.08627L17.6665 11.1924C17.619 11.4681 17.4755 11.7183 17.2614 11.8985C17.0473 12.0786 16.7764 12.1774 16.4965 12.1771Z" fill="#D0B484" stroke="#D0B484" stroke-width="0.5"/>
</svg>
