<svg width="20" height="20" viewBox="0 0 20 20" fill="none" xmlns="http://www.w3.org/2000/svg">
<path d="M7.08359 13.8219L3.92276 10.6611C3.76559 10.5093 3.55509 10.4253 3.33659 10.4272C3.11809 10.4291 2.90907 10.5167 2.75457 10.6712C2.60006 10.8257 2.51243 11.0348 2.51053 11.2533C2.50863 11.4717 2.59262 11.6822 2.74442 11.8394L6.49442 15.5895C6.65069 15.7456 6.86262 15.8335 7.08359 15.8335C7.30456 15.8335 7.51647 15.7456 7.67276 15.5895L16.8395 6.42276C16.9912 6.26559 17.0752 6.05509 17.0733 5.83659C17.0715 5.61809 16.9837 5.40907 16.8293 5.25457C16.6747 5.10006 16.4657 5.01243 16.2473 5.01053C16.0287 5.00863 15.8183 5.09262 15.661 5.24442L7.08359 13.8219Z" fill="#CAB683"/>
</svg>
