<svg width="18" height="18" viewBox="0 0 18 18" fill="none" xmlns="http://www.w3.org/2000/svg">
<circle cx="9" cy="9" r="6.75" stroke="white" stroke-opacity="0.6" stroke-width="2" stroke-linecap="round" stroke-linejoin="round"/>
<path d="M8.20711 6.79289C7.81658 6.40237 7.18342 6.40237 6.79289 6.79289C6.40237 7.18342 6.40237 7.81658 6.79289 8.20711L8.20711 6.79289ZM9.79289 11.2071C10.1834 11.5976 10.8166 11.5976 11.2071 11.2071C11.5976 10.8166 11.5976 10.1834 11.2071 9.79289L9.79289 11.2071ZM11.2071 8.20711C11.5976 7.81658 11.5976 7.18342 11.2071 6.79289C10.8166 6.40237 10.1834 6.40237 9.79289 6.79289L11.2071 8.20711ZM6.79289 9.79289C6.40237 10.1834 6.40237 10.8166 6.79289 11.2071C7.18342 11.5976 7.81658 11.5976 8.20711 11.2071L6.79289 9.79289ZM6.79289 8.20711L9.79289 11.2071L11.2071 9.79289L8.20711 6.79289L6.79289 8.20711ZM9.79289 6.79289L6.79289 9.79289L8.20711 11.2071L11.2071 8.20711L9.79289 6.79289Z" fill="white" fill-opacity="0.6"/>
</svg>
