<svg width="177" height="40" viewBox="0 0 177 40" fill="none" xmlns="http://www.w3.org/2000/svg">
<path d="M35.9406 21.3333H27.9688V26.2666H37.4268V30.1333H22.8345V9.33331H37.4268V13.2H27.9688V17.6H35.9406V21.3333Z" fill="white"/>
<path d="M54.8567 24.6667C54.8567 23.8667 54.5864 23.3333 54.046 22.9333C53.5055 22.5333 52.5597 22.1333 51.2086 21.6C49.8574 21.2 48.7765 20.8 47.9658 20.2667C45.2635 18.9333 43.9124 17.0667 43.9124 14.8C43.9124 13.6 44.3177 12.6667 44.9933 11.7333C45.6689 10.8 46.6147 10.1333 47.8307 9.73332C49.0467 9.19999 50.533 8.93332 52.0193 8.93332C53.5055 8.93332 54.8567 9.19999 56.0727 9.73332C57.2887 10.2667 58.2345 11.0667 58.9101 12C59.5857 12.9333 59.8559 14.1333 59.8559 15.3333H54.7215C54.7215 14.5333 54.4513 13.8667 53.9109 13.3333C53.3704 12.8 52.6948 12.6667 51.749 12.6667C50.8032 12.6667 50.1277 12.8 49.5872 13.2C49.0467 13.6 48.7765 14.1333 48.7765 14.6667C48.7765 15.2 49.0467 15.7333 49.5872 16.1333C50.1277 16.5333 51.2086 17.0667 52.6948 17.4667C54.1811 17.8667 55.3971 18.4 56.3429 18.9333C58.6399 20.2667 59.7208 22 59.7208 24.2667C59.7208 26.1333 59.0452 27.4667 57.6941 28.5333C56.3429 29.6 54.4513 30.1333 52.0193 30.1333C50.2628 30.1333 48.7765 29.8667 47.4254 29.2C46.0742 28.5333 44.9933 27.7333 44.3177 26.6667C43.6422 25.6 43.2368 24.4 43.2368 23.0667H48.3712C48.3712 24.1333 48.6414 25.0667 49.1819 25.6C49.7223 26.1333 50.6681 26.4 52.0193 26.4C52.8299 26.4 53.5055 26.2667 54.046 25.8667C54.5864 25.7333 54.8567 25.2 54.8567 24.6667Z" fill="white"/>
<path d="M83.636 13.2H77.2857V30.1333H72.1513V13.2H65.936V9.33331H83.636V13.2Z" fill="white"/>
<path d="M107.686 20.1333C107.686 22.1333 107.281 24 106.605 25.4667C105.93 26.9333 104.714 28.2667 103.363 29.0667C102.012 29.8667 100.39 30.4 98.4986 30.4C96.607 30.4 95.1207 30 93.7696 29.2C92.4184 28.4 91.3375 27.2 90.5268 25.7333C89.7161 24.2667 89.3108 22.5333 89.3108 20.5333V19.3333C89.3108 17.3333 89.7161 15.4667 90.3917 13.8667C91.2024 12.2667 92.2833 11.0667 93.6345 10.2667C94.9856 9.46665 96.607 8.93332 98.4986 8.93332C100.255 8.93332 101.876 9.33332 103.228 10.1333C104.579 10.9333 105.66 12.1333 106.47 13.7333C107.281 15.3333 107.686 17.0667 107.686 19.0667V20.1333ZM102.552 19.3333C102.552 17.2 102.147 15.7333 101.471 14.6667C100.796 13.6 99.7146 13.0667 98.4986 13.0667C95.9314 13.0667 94.5803 14.9333 94.4451 18.8V20.2667C94.4451 22.2667 94.8505 23.8667 95.5261 24.9333C96.2016 26 97.2825 26.5333 98.6337 26.5333C99.9848 26.5333 100.931 26 101.606 24.9333C102.282 23.8667 102.687 22.2667 102.687 20.2667V19.3333H102.552Z" fill="white"/>
<path d="M122.684 24.5333L126.873 9.33331H132.548L125.386 30.1333H119.847L112.821 9.33331H118.496L122.684 24.5333Z" fill="white"/>
<path d="M151.734 21.3333H143.762V26.2666H153.22V30.1333H138.628V9.33331H153.22V13.2H143.762V17.6H151.734V21.3333Z" fill="white"/>
</svg>
