<svg width="70" height="70" viewBox="0 0 70 70" fill="none" xmlns="http://www.w3.org/2000/svg">
<path d="M15 30.625C13.2375 30.625 11.5703 30.9395 10 31.4316V30.625C10 25.7988 14.4844 21.875 20 21.875C22.7609 21.875 25 19.9158 25 17.5C25 15.0842 22.7656 13.125 20 13.125C8.97187 13.125 0 20.9727 0 30.625V43.75C0 50.9988 6.71562 56.875 15 56.875C23.2844 56.875 30 50.9988 30 43.75C30 36.5012 23.2812 30.625 15 30.625ZM55 30.625C53.2375 30.625 51.5703 30.9401 50 31.4288V30.625C50 25.7988 54.4844 21.875 60 21.875C62.7609 21.875 65 19.9158 65 17.5C65 15.0842 62.7609 13.125 60 13.125C48.9719 13.125 40 20.9754 40 30.625V43.75C40 50.9988 46.7156 56.875 55 56.875C63.2844 56.875 70 50.9988 70 43.75C70 36.5012 63.2812 30.625 55 30.625Z" fill="#D7D9DB"/>
</svg>
