<svg width="22" height="22" viewBox="0 0 22 22" fill="none" xmlns="http://www.w3.org/2000/svg">
<g clip-path="url(#clip0_1_224)">
<mask id="mask0_1_224" style="mask-type:luminance" maskUnits="userSpaceOnUse" x="0" y="0" width="22" height="22">
<path d="M21.5754 0.0993652H0.44458V21.9346H21.5754V0.0993652Z" fill="white"/>
</mask>
<g mask="url(#mask0_1_224)">
<path d="M17.0303 7.26425C18.1302 7.62522 19.0432 7.76286 19.9051 7.69851C20.9895 7.61715 21.5645 6.99632 21.5681 5.90333C21.5696 5.40727 21.5461 4.90393 21.5234 4.41722C21.5169 4.27994 21.5107 4.14269 21.5048 4.00545C21.5053 3.84949 21.4538 3.69777 21.3586 3.57434C21.2632 3.45091 21.1293 3.3628 20.9783 3.32396C20.7732 3.26233 20.5646 3.21233 20.3538 3.17426C18.1164 2.7697 16.3944 1.90493 15.0891 0.530457C14.8675 0.301499 14.5685 0.163386 14.2504 0.143066H14.241C13.568 0.15187 12.8869 0.223425 12.228 0.292717L11.8935 0.327324C11.5098 0.366505 11.2788 0.617881 11.2601 1.01673C11.2513 1.20047 11.2476 1.34111 11.2477 1.47256C11.2481 2.39898 11.2493 3.32538 11.2514 4.25179C11.2553 6.45089 11.2595 8.7249 11.2459 10.9608C11.2396 12.0107 11.1836 13.0691 11.0795 14.1065C11.0564 14.3712 10.9801 14.6285 10.8552 14.863C10.7304 15.0974 10.5594 15.3043 10.3528 15.4712C10.1278 15.6456 9.8701 15.7727 9.59497 15.8453C9.31982 15.9179 9.03281 15.9342 8.75119 15.8933C7.62095 15.7506 7.00402 15.0792 6.80944 13.7803C6.7014 13.0596 6.84467 12.4092 7.22467 11.8991C7.59816 11.3973 8.16621 11.0789 8.86714 10.9785C9.52057 10.8849 9.72007 10.6305 9.65756 9.96997C9.60421 9.40718 9.5188 8.83911 9.43622 8.28988C9.38243 7.93215 9.32678 7.56211 9.28063 7.19813C9.23376 6.82746 9.0088 6.60736 8.61198 6.54406C8.36519 6.50573 8.11419 6.50321 7.86669 6.53663C4.85819 6.94226 2.6456 8.502 1.2904 11.1726C0.313099 13.0977 0.195739 15.3075 0.967368 17.2355C1.71655 19.1077 3.21824 20.5239 5.19565 21.2231C6.41122 21.661 7.69301 21.8867 8.98504 21.8905C10.3692 21.8905 11.7711 21.6269 13.2116 21.0998C14.9137 20.4767 15.9126 19.2045 16.1803 17.3186C16.5536 14.6887 16.6128 12.4781 16.3663 10.3617C16.2771 9.59481 16.2453 8.8224 16.2118 8.00463C16.198 7.66716 16.1836 7.31945 16.165 6.96357C16.2609 6.9972 16.3492 7.02837 16.4319 7.0575C16.662 7.13886 16.8436 7.20305 17.0303 7.26425ZM14.6707 7.96113C14.6872 9.5006 14.7044 11.0926 14.6843 12.6575L14.6831 12.7462C14.6655 14.1612 14.6466 15.6244 14.3749 17.0458C14.1263 18.3473 13.4545 19.1665 12.321 19.5502C9.92275 20.3616 7.71807 20.3671 5.5806 19.5665C2.5984 18.4494 1.69938 15.6994 2.13133 13.4694C2.69842 10.5425 4.35007 8.67808 7.04047 7.92794C7.32222 7.84949 7.65679 7.75765 7.99692 7.67154C8.07825 7.65329 8.16055 7.63966 8.24343 7.6307C8.27714 7.6262 8.31388 7.62128 8.35456 7.61565L8.47428 9.78033C8.44277 9.79617 8.41343 9.81176 8.38561 9.82646C8.32388 9.8637 8.25751 9.89258 8.18821 9.91249C6.27472 10.3287 5.17883 12.1523 5.52318 14.347C5.62059 14.9823 5.88605 15.5804 6.29207 16.0787C6.69808 16.5772 7.2299 16.9582 7.83251 17.1821C8.46253 17.4231 9.14496 17.4942 9.81112 17.3879C10.4773 17.2815 11.1037 17.0015 11.6273 16.5761C12.3708 15.9677 12.7329 15.2078 12.6746 14.379C12.6075 13.4229 12.6517 12.4535 12.6946 11.516C12.7217 10.9202 12.7499 10.3044 12.7493 9.69677C12.7479 8.13422 12.7417 6.54564 12.7357 5.00933C12.7328 4.28396 12.7302 3.55866 12.7277 2.8334C12.7268 2.56925 12.7271 2.30511 12.7277 2.03402V1.70595C13.0732 1.57538 13.4123 1.598 13.7409 1.62019C13.8642 1.62847 13.9909 1.63692 14.1153 1.63692H14.1174L14.2162 1.73502C15.5207 3.02928 15.7978 3.3039 19.9868 4.68453L19.9268 5.85182C19.9004 5.86494 19.8764 5.87822 19.8537 5.89073C19.8182 5.91349 19.7791 5.9302 19.7381 5.94021C18.4954 5.84723 17.0625 5.68702 15.7849 4.95933C15.6041 4.86625 15.4132 4.79402 15.2162 4.74412C15.1078 4.71181 14.9955 4.67835 14.8729 4.63617C14.8601 4.63179 14.8467 4.63027 14.8333 4.63175C14.82 4.63321 14.8071 4.63764 14.7957 4.64468C14.7843 4.65172 14.7747 4.66123 14.7673 4.6725C14.7601 4.68376 14.7554 4.69653 14.7538 4.70981C14.7377 4.83078 14.7205 4.93662 14.7048 5.03267C14.6731 5.19524 14.6549 5.36012 14.6506 5.5257C14.653 6.33755 14.6619 7.16292 14.6704 7.96113H14.6707Z" fill="#D7D9DB"/>
</g>
</g>
<defs>
<clipPath id="clip0_1_224">
<rect width="22" height="22" fill="white"/>
</clipPath>
</defs>
</svg>
