<svg width="1920" height="23" viewBox="0 0 1920 23" fill="none" xmlns="http://www.w3.org/2000/svg">
<g clip-path="url(#clip0_1_182)">
<path d="M-18 2.62963C0.874279 2.62963 0.874279 23 19.6128 23C38.4871 23 38.4871 2.62963 57.2255 2.62963C76.0998 2.62963 76.0998 23 94.8383 23C113.713 23 113.713 2.62963 132.451 2.62963C151.325 2.62963 151.325 23 170.064 23C188.938 23 188.938 2.62963 207.677 2.62963C226.551 2.62963 226.551 23 245.289 23C264.164 23 264.164 2.62963 282.902 2.62963C301.776 2.62963 301.776 23 320.515 23C339.389 23 339.389 2.62963 358.128 2.62963C377.002 2.62963 377.002 23 395.741 23C414.615 23 414.615 2.62963 433.353 2.62963C452.228 2.62963 452.228 23 470.966 23C489.84 23 489.84 2.62963 508.579 2.62963C527.453 2.62963 527.453 23 546.192 23C565.066 23 565.066 2.62963 583.804 2.62963C602.679 2.62963 602.679 23 621.485 23C640.359 23 640.359 2.62963 659.098 2.62963C677.972 2.62963 677.972 23 696.711 23C715.585 23 715.585 2.62963 734.323 2.62963C753.198 2.62963 753.198 23 771.936 23C790.81 23 790.81 2.62963 809.549 2.62963C828.423 2.62963 828.423 23 847.162 23C866.036 23 866.036 2.62963 884.774 2.62963C903.649 2.62963 903.649 23 922.387 23C941.261 23 941.261 2.62963 960 2.62963C978.874 2.62963 978.874 23 997.613 23C1016.49 23 1016.49 2.62963 1035.23 2.62963C1054.1 2.62963 1054.1 23 1072.84 23C1091.71 23 1091.71 2.62963 1110.45 2.62963C1129.33 2.62963 1129.33 23 1148.06 23C1166.94 23 1166.94 2.62963 1185.68 2.62963C1204.55 2.62963 1204.55 23 1223.29 23C1242.16 23 1242.16 2.62963 1260.9 2.62963C1279.78 2.62963 1279.78 23 1298.52 23C1317.39 23 1317.39 2.62963 1336.13 2.62963C1355 2.62963 1355 23 1373.74 23C1392.61 23 1392.61 2.62963 1411.35 2.62963C1430.23 2.62963 1430.23 23 1448.97 23C1467.84 23 1467.84 2.62963 1486.58 2.62963C1505.45 2.62963 1505.45 23 1524.19 23C1543.07 23 1543.07 2.62963 1561.8 2.62963C1580.68 2.62963 1580.68 23 1599.48 23C1618.36 23 1618.36 2.62963 1637.1 2.62963C1655.97 2.62963 1655.97 23 1674.71 23C1693.58 23 1693.58 2.62963 1712.32 2.62963C1731.2 2.62963 1731.2 23 1749.94 23C1768.81 23 1768.81 2.62963 1787.55 2.62963C1806.42 2.62963 1806.42 23 1825.16 23C1844.04 23 1844.04 2.62963 1862.77 2.62963C1881.65 2.62963 1881.65 23 1900.39 23C1919.26 23 1919.26 2.62963 1938 2.62963V1H-18" fill="#1A1A1A"/>
<path d="M1920 1.3V0H0V1.3" fill="#1A1A1A"/>
</g>
<defs>
<clipPath id="clip0_1_182">
<rect width="1920" height="22.9" fill="white"/>
</clipPath>
</defs>
</svg>
